<svg height="512" viewBox="0 0 512 512" width="512" xmlns="http://www.w3.org/2000/svg"><g fill="none" fill-rule="evenodd"><path d="m418.6779 256.2238c0 89.636-72.664 162.3-162.3 162.3s-162.299-72.664-162.299-162.3c0-89.635 72.663-162.299 162.299-162.299s162.3 72.664 162.3 162.299" fill="#ccecf7"/><g stroke="#234551" stroke-width="2"><path d="m10.3069 511.7414 42.479-42.479"/><path d="m43.1858 459.6632-42.479 42.479"/><path d="m73.8918 419.3576-35.506 35.506 19.199 19.199 35.506-35.506z" fill="#a0b8c3"/><path d="m122.3576 426.3781c-7.184-3.503-14.501-8.356-21.216-15.071-6.627-6.628-11.44-13.841-14.933-20.934l-.534.401-20.183 20.183 35.999 35.999 20.183-20.183z" fill="#a0b8c3"/><path d="m135.717 280.735-58.574 68.174s-1.412 20.187 9.065 41.464c3.493 7.093 8.307 14.306 14.934 20.934 6.715 6.715 14.032 11.568 21.216 15.071 21.172 10.326 41.181 8.928 41.181 8.928l68.174-58.574z" fill="#61899b"/><path d="m178.9582 290.3595 43.18-43.179c3.975-3.976-10.424-18.376-14.4-14.4l-43.179 43.18z" fill="#fff"/><path d="m236.5559 347.9572 43.18-43.179c3.975-3.976-10.424-18.376-14.4-14.4l-43.179 43.18z" fill="#fff"/><path d="m235.9768 380.9757c4.653 4.654 21.453-12.146 16.799-16.799l-104.504-104.504c-4.654-4.654-21.453 12.145-16.8 16.799z" fill="#61899b"/><path d="m502.1418.7067-42.479 42.479"/><path d="m469.2629 52.7848 42.479-42.479"/><path d="m438.5569 93.0905 35.506-35.506-19.199-19.199-35.506 35.506z" fill="#a0b8c3"/><path d="m390.0901 86.0695c7.184 3.503 14.501 8.356 21.217 15.072 6.627 6.627 11.44 13.841 14.932 20.933l.535-.401 20.182-20.184-35.998-35.998-20.183 20.183z" fill="#a0b8c3"/><path d="m376.7317 231.7126 58.574-68.174s1.411-20.187-9.066-41.464c-3.492-7.092-8.306-14.306-14.933-20.933-6.716-6.716-14.033-11.569-21.217-15.072-21.171-10.326-41.18-8.927-41.18-8.927l-68.174 58.574z" fill="#61899b"/><path d="m276.4817 131.4621c-4.654-4.654-21.453 12.146-16.8 16.799l104.505 104.505c4.653 4.654 21.453-12.146 16.799-16.8z" fill="#61899b"/></g><path d="m348.7805 134.5124 1.656 1.656-2.981 2.982c-2.154 2.154-1.325 4.638 1.987 7.952l.166.165c7.951 7.952 4.307 10.271 3.314 11.597l.165.165c1.325-.994 3.644-4.639 11.595 3.313l.166.166c3.314 3.313 5.633 4.307 7.952 1.988l2.319-2.319-19.216-34.789 3.314-3.313c3.147-3.147 6.459-3.479 11.761 1.823l.331.331c3.976 3.976 7.454 5.798 10.768 2.485l1.656 1.656c-3.147 3.148-1.656 6.627 2.485 10.768 5.135 5.135 4.97 8.614 1.823 11.762l-2.817 2.816-1.656-1.657 2.982-2.982c2.153-2.153 1.325-4.638-1.989-7.951l-.165-.166c-7.952-7.951-4.307-10.27-3.313-11.595l-.166-.166c-1.325.994-3.644 4.638-11.596-3.313l-.331-.332c-3.314-3.313-5.633-4.307-7.951-1.988l-1.657 1.657 19.216 35.119-3.81 3.81c-3.148 3.148-6.461 3.479-11.762-1.822l-.331-.331c-4.142-4.142-7.455-5.799-10.768-2.485l-1.657-1.657c3.148-3.147 1.657-6.626-2.484-10.767l-.166-.166c-5.135-5.136-4.97-8.614-1.822-11.762zm-14.909 5.963 6.957 26.174c.663 2.32 2.982 4.638 5.302 5.301l26.173 6.958c2.319.331 5.466-.497 7.123-2.154l19.051-19.05c1.657-1.657 2.485-4.804 1.822-7.124l-6.957-26.173c-.664-2.319-2.982-4.639-5.301-5.301l-26.174-6.958c-2.319-.662-5.467.166-7.123 1.822l-19.051 19.051c-1.491 1.822-2.319 4.97-1.822 7.454z" fill="#234551"/><path d="m162.0783 367.925-3.479-.373c-.011-.227-.027-.454-.056-.683-.763-6.026-6.994-10.054-13.918-8.995-6.924 1.058-11.919 6.802-11.155 12.829.573 4.526 4.231 7.915 8.948 8.88l.357 3.31-.005.011c-6.918-.749-12.474-5.417-13.286-11.823-.99-7.846 5.51-15.323 14.522-16.702 9.014-1.378 17.127 3.865 18.119 11.711.075.6.106 1.207.094 1.815zm4.871-22.426c-12.214-12.214-32.017-12.214-44.23 0-12.214 12.214-12.214 32.016 0 44.23 12.213 12.214 32.016 12.214 44.23 0s12.214-32.016 0-44.23z" fill="#234551"/></g></svg>