<svg height="68" viewBox="0 0 400 68" width="400" xmlns="http://www.w3.org/2000/svg"><g fill="none"><g fill="#1c272c"><path d="m38.33 53 11-52.54h11.31l-4.34 20.64.16.07c3.0219215-3.4676233 7.4004062-5.4525363 12-5.44 5.9 0 9.26 3.5 9.26 9.32-.0577433 2.2577711-.332339 4.5047673-.82 6.71l-4.47 21.24h-11.31l4.26-20.57c.3259539-1.4947183.4902316-3.020154.49-4.55 0-2.24-1-3.8-3.53-3.8-3.6 0-7.45 4.17-8.93 11l-3.77 18z"/><path d="m99.24 67.57 7.87-37.63c.9-4.25 1.81-9.91 2.3-13.64h10l-.66 5.51h.17c2.847476-3.7737701 7.273204-6.0272031 12-6.11 8.28 0 11.64 6.19 11.64 13.12 0 12.52-8.69 24.89-22 24.89-2.287255.0737611-4.560363-.3849685-6.64-1.34h-.25l-3.11 15.2zm16.15-23.1c1.345476 1.0064183 2.990272 1.5312035 4.67 1.49 6.32 0 10.66-9.46 10.66-16.1 0-2.75-1.07-5.66-4.51-5.66-3.93 0-7.62 4.25-8.93 10.66z"/><path d="m203 6.76-2 9.76h8.28l-1.64 7.68h-8.28l-2.95 13.64c-.331869 1.3668943-.522866 2.7641851-.57 4.17 0 1.94 1 3.06 3.36 3.06 1.002293.0212649 2.004827-.0288618 3-.15l-1.31 8c-2.196713.5475457-4.456623.7997677-6.72.75-6.72 0-10-3.21-10-7.9.026893-2.161023.302031-4.3117978.82-6.41l3.19-15.13h-5l1.64-7.68h5l1.39-6.71z"/><path d="m231.61 53c.08-2.09.33-4.4.49-6.86h-.24c-3.53 5.66-8.28 7.6-12.46 7.6-6.81 0-11.15-4.92-11.15-12.15 0-13.79 6.52-25.33 27-25.33 4.183144.0337074 8.344349.6084781 12.38 1.71l-4.14 18.93c-1.063935 5.3013202-1.613153 10.6930385-1.64 16.1zm3.39-28.65c-.941612-.2120786-1.904885-.3127691-2.87-.3-8.44 0-12.26 8.08-12.26 15.42 0 3.51 1.23 5.89 4.26 5.89 3.36 0 7.22-3.8 8.94-12.07z"/><path d="m271.43 6.76-2.05 9.76h8.28l-1.66 7.68h-8.28l-2.95 13.64c-.331869 1.3668943-.522866 2.7641851-.57 4.17 0 1.94 1 3.06 3.36 3.06 1.002293.0212649 2.004827-.0288618 3-.15l-1.31 8c-2.196713.5475457-4.456623.7997677-6.72.75-6.72 0-10-3.21-10-7.9.026893-2.161023.302031-4.3117978.82-6.41l3.19-15.13h-5l1.64-7.68h5l1.39-6.71z"/><path d="m343.57 53 5.16-24.6c1-4.47 1.56-8.49 2.13-11.85h9.92l-.65 5.59h.16c3.088657-4.0567137 7.90134-6.4297366 13-6.41 6.31 0 9.59 3.65 9.59 9.39-.052658 2.1540943-.296955 4.299226-.73 6.41l-4.48 21.47h-11.31l4.34-21c.26285-1.317368.400132-2.6567013.41-4 0-2.31-.9-4-3.52-4-3.44 0-7.55 4-9.1 11.78l-3.49 17.22z"/><path d="m94.69 11.84h.16c3.49 0 6.49-2.14 6.57-5.9 0-3-2.19-5.08-5.6-5.08-1.6342799-.08133162-3.2328924.49625612-4.4377722 1.60339218-1.2048799 1.10713605-1.9153327 2.65129483-1.9722278 4.28660782-.0554275 1.399908.4898042 2.75682027 1.4984459 3.7291662 1.0086417.9723458 2.3846161 1.4675054 3.7815541 1.3608338z"/><path d="m98.73 16.26h-11l-4.73 22.57c-.5098215 2.0757283-.7815727 4.2027687-.81 6.34 0 4.64 3.24 7.82 9.89 7.82 2.2396157.0480073 4.4757251-.200823 6.65-.74l1.3-7.89c-.9956884.1143929-1.9979855.1611668-3 .14-2.36 0-3.33-1.1-3.33-3 .0466857-1.3926723.2377079-2.7767455.57-4.13z"/><path d="m290.9 11.84h.17c3.48 0 6.48-2.14 6.56-5.9 0-3-2.19-5.08-5.59-5.08-1.63428-.08133162-3.232892.49625612-4.437772 1.60339218-1.20488 1.10713605-1.915333 2.65129483-1.972228 4.28660782-.055138 1.39803314.488764 2.75318954 1.495129 3.725181 1.006364.9719915 2.379597 1.468489 3.774871 1.364819z"/><path d="m295 16.26h-11l-4.74 22.57c-.509821 2.0757283-.781573 4.2027687-.81 6.34 0 4.64 3.24 7.82 9.89 7.82 2.242912.0479519 4.482319-.200871 6.66-.74l1.29-7.89c-.995669.1146385-1.997982.1614131-3 .14-2.35 0-3.32-1.1-3.32-3 .047923-1.3919434.235532-2.7755542.56-4.13z"/><path d="m24.85 24.41c-4.59-2.75-7.3-5.06-7.3-7.81 0-3.06 3-5.59 8.12-5.59 3.75-.07 7.6 1.56 10.35 3l2.15-8.92v-.22c-3.6286157-1.9008605-7.6740373-2.86667484-11.77-2.81-13 0-20.57 5.94-20.57 16.18 0 5.88 4.59 10.35 9.92 13.48 4.59 2.61 6.88 4 6.88 6.94 0 4-3.93 6.11-8.52 6-4.39 0-9-2.45-11.85-4l-2.26 9.39c4.04539108 2.3248859 8.62422187 3.5617559 13.29 3.59 12.4 0 21.23-4.66 21.23-16.77 0-5.44-3.61-9.1-9.67-12.46z"/><path d="m167.89 24.41c-4.59-2.75-7.3-5.06-7.3-7.81 0-3.06 2.95-5.59 8.12-5.59 3.76-.07 7.6 1.56 10.35 3l2.16-8.92v-.22c-3.636633-1.92203179-7.697019-2.90188804-11.81-2.85-13 0-20.58 5.94-20.58 16.18 0 5.88 4.59 10.35 9.92 13.48 4.59 2.61 6.88 4 6.88 6.94 0 4-3.93 6.11-8.52 6-4.38 0-9-2.45-11.84-4l-2.27 9.43c4.045391 2.3248859 8.624222 3.5617559 13.29 3.59 12.4 0 21.23-4.66 21.23-16.77.04-5.44-3.52-9.1-9.63-12.46z"/><path d="m387 13.53c-.007975-1.7239127.669208-3.3803845 1.882572-4.60500106 1.213365-1.22461655 2.863515-1.91706078 4.587428-1.92499894 1.157916-.00958846 2.297311.29079746 3.3.87.990426.56030028 1.8097 1.37957375 2.37 2.37.571751 1.0016503.868448 2.1366867.86 3.29.093663 2.392086-1.129103 4.643661-3.186508 5.8675631-2.057404 1.2239022-4.61958 1.2239022-6.676984 0-2.057405-1.2239021-3.280171-3.4754771-3.186508-5.8675631zm.85 0c.005504 3.1291718 2.540828 5.6644957 5.67 5.67 1.507578.0239373 2.956993-.5811933 4-1.67 1.074398-1.0512295 1.670782-2.4970085 1.65-4 .005339-1.4974512-.58716-2.9351112-1.646024-3.99397582-1.058865-1.05886465-2.496525-1.65136274-3.993976-1.64602418-1.501515-.02340719-2.947079.56927406-4 1.64-1.115062 1.0296249-1.743358 2.4823332-1.73 4zm3.15 3.76v-7.49h3c.617136-.01354219 1.215579.2122175 1.67.63.45937.4190301.711628 1.0185989.69 1.64.025051 1.1216002-.797873 2.0823956-1.91 2.23l2 3h-1.24l-1.94-3h-1.27v3zm1-3.85h2c.381235.0046338.745853-.1557982 1-.44.280138-.2554254.433741-.6211455.42-1 .005947-.3773895-.146364-.7400352-.42-1-.243873-.2525706-.578923-.3966783-.93-.4h-2.07z"/></g><path d="m324.11 57.25h-7.11l-1-6.25c-1.572272-.4095167-3.08002-1.0355014-4.48-1.86l-5.08 3.75-5.06-5.05 3.75-5.09c-.819299-1.4025691-1.444979-2.9095833-1.86-4.48l-6.24-.94v-7.14l6.24-.94c.415021-1.5704167 1.040701-3.0774309 1.86-4.48l-3.75-5.08 5.06-5.06 5.08 3.75c1.401604-.8188419 2.90902-1.4413237 4.48-1.85l.94-6.24h7.15l.94 6.24c1.57098.4086763 3.078396 1.0311581 4.48 1.85l5.08-3.75 5.06 5.06-3.75 5.08c.820558 1.4007526 1.443141 2.9084119 1.85 4.48l6.25.94v7.15l-6.25.94c-.406859 1.5715881-1.029442 3.0792474-1.85 4.48l3.75 5.08-5.06 5.06-5.08-3.75c-1.39998.8244986-2.907728 1.4504833-4.48 1.86l-.94 6.24zm-3.58-31.33c-4.335435 0-7.85 3.5145647-7.85 7.85s3.514565 7.85 7.85 7.85 7.85-3.5145647 7.85-7.85c-.005509-4.3331512-3.516849-7.8444906-7.85-7.85z" fill="#6cbe45"/></g></svg>