<svg height="320" viewBox="0 0 900 320" width="900" xmlns="http://www.w3.org/2000/svg"><g fill="none" fill-rule="evenodd"><path d="m0 0h900v320h-900z" fill="#00a1d5"/><path d="m507.166223 118.35207-49.337533-28.4864611c-4.305186-2.4874785-11.355585-2.4874785-15.664162 0l-49.330751 28.4864611c-4.310273 2.487478-7.833777 8.593416-7.833777 13.568373v56.959357c0 4.974957 3.526895 11.080894 7.833777 13.571764l49.330751 28.4712c4.308577 2.484088 11.358976 2.484088 15.664162 0l49.337533-28.4712c4.310273-2.49087 7.833777-8.596807 7.833777-13.571764v-56.959357c0-4.974957-3.523504-11.080895-7.833777-13.568373zm-13.305551 30.672119h-5.112302v-8.690067c0-6.645145-5.110607-8.690066-14.996087-8.690066h-.451036c-23.684458 0-21.583581-8.861324-22.266917-12.098268h-.342516c-.68164 3.236944 1.59219 12.098268-22.097355 12.098268h-.622293c-9.883785 0-14.997783 2.046617-14.997783 8.690066v6.704493l80.864246 23.382636v1.309021h.022043v8.356029c0 9.541269-4.60192 14.823133-20.108389 14.823133h-.793552c-12.096572 0-19.540356 2.556999-19.540356 12.098268h-5.112302c0-9.541269-7.438697-12.098268-19.540356-12.098268h-.791856c-15.508165 0-20.108389-5.281864-20.108389-14.823133v-8.356029h5.110607v8.690066c0 6.655319 5.115693 8.696849 14.997782 8.696849h.451036c23.689544 0 21.586972 8.857933 22.268613 12.098268h.342515c.681641-3.240335-1.590494-12.098268 22.092268-12.098268h.625685c9.88548 0 14.996087-2.046616 14.996087-8.696849v-4.995304l-80.874419-23.387724v-3.013121h-.01187v-8.347551c0-9.542964 4.600225-14.824829 20.10839-14.824829h.791855c12.10166 0 19.540356-2.558695 19.540356-12.099963h5.112303c0 9.541268 7.443783 12.099963 19.540356 12.099963h.793551c15.506469 0 20.108389 5.281865 20.108389 14.824829z" fill="#fff" fill-rule="nonzero"/></g></svg>