<?xml version="1.0" encoding="UTF-8"?>
<svg width="800px" height="320px" viewBox="0 0 800 320" version="1.1" xmlns="http://www.w3.org/2000/svg" xmlns:xlink="http://www.w3.org/1999/xlink">
    <!-- Generator: Sketch 52.5 (67469) - http://www.bohemiancoding.com/sketch -->
    <title>hero</title>
    <desc>Created with Sketch.</desc>
    <g id="hero" stroke="none" stroke-width="1" fill="none" fill-rule="evenodd">
        <rect fill="#00A1D5" x="0" y="0" width="800" height="320"></rect>
        <path d="M457.166223,118.35207 L407.82869,89.8656089 C403.523504,87.3781304 396.473105,87.3781304 392.164528,89.8656089 L342.833777,118.35207 C338.523504,120.839548 335,126.945486 335,131.920443 L335,188.8798 C335,193.854757 338.526895,199.960694 342.833777,202.451564 L392.164528,230.922764 C396.473105,233.406852 403.523504,233.406852 407.82869,230.922764 L457.166223,202.451564 C461.476496,199.960694 465,193.854757 465,188.8798 L465,131.920443 C465,126.945486 461.476496,120.839548 457.166223,118.35207 L457.166223,118.35207 Z M443.860672,149.024189 L438.74837,149.024189 L438.74837,140.334122 C438.74837,133.688977 433.637763,131.644056 423.752283,131.644056 L423.301247,131.644056 C399.616789,131.644056 401.717666,122.782732 401.03433,119.545788 L400.691814,119.545788 C400.010174,122.782732 402.284004,131.644056 378.594459,131.644056 L377.972166,131.644056 C368.088381,131.644056 362.974383,133.690673 362.974383,140.334122 L362.974383,147.038615 L443.838629,170.421251 L443.838629,171.730272 L443.860672,171.730272 L443.860672,180.086301 C443.860672,189.62757 439.258752,194.909434 423.752283,194.909434 L422.958731,194.909434 C410.862159,194.909434 403.418375,197.466433 403.418375,207.007702 L398.306073,207.007702 C398.306073,197.466433 390.867376,194.909434 378.765717,194.909434 L377.973861,194.909434 C362.465696,194.909434 357.865472,189.62757 357.865472,180.086301 L357.865472,171.730272 L362.976079,171.730272 L362.976079,180.420338 C362.976079,187.075657 368.091772,189.117187 377.973861,189.117187 L378.424897,189.117187 C402.114441,189.117187 400.011869,197.97512 400.69351,201.215455 L401.036025,201.215455 C401.717666,197.97512 399.445531,189.117187 423.128293,189.117187 L423.753978,189.117187 C433.639458,189.117187 438.750065,187.070571 438.750065,180.420338 L438.750065,175.425034 L357.875646,152.03731 L357.875646,149.024189 L357.863776,149.024189 L357.863776,140.676638 C357.863776,131.133674 362.464001,125.851809 377.972166,125.851809 L378.764021,125.851809 C390.865681,125.851809 398.304377,123.293114 398.304377,113.751846 L403.41668,113.751846 C403.41668,123.293114 410.860463,125.851809 422.957036,125.851809 L423.750587,125.851809 C439.257056,125.851809 443.858976,131.133674 443.858976,140.676638 L443.860672,149.024189 L443.860672,149.024189 L443.860672,149.024189 Z" id="logo" fill="#FFFFFF" fill-rule="nonzero"></path>
    </g>
</svg>