<svg width="750" height="750" viewBox="0 0 750 750" fill="none" xmlns="http://www.w3.org/2000/svg">
<path d="M172.1 361.3L362 236C369.4 231 381.2 231 388.7 236L578.6 362C589.8 369.4 589.8 381.9 578.6 389.3L553.2 406C516 347 450.2 307.9 375.1 307.9C300 307.9 234.8 347.1 197 406L171.6 389.2C160.3 381.2 160.3 368.8 172.1 361.3ZM375.1 360.1C318.6 360.1 269 389.9 241.1 434.6L284.5 463.8C303.1 433.4 336 412.9 374.5 412.9C412.4 412.9 445.9 433.4 464.5 463.8L507.9 434.6C481.2 389.9 431.5 360.1 375.1 360.1ZM375.1 465C355.2 465 337.9 476.2 328.6 492.3L357.8 511.5C362.8 515.2 368.4 517.7 374.6 517.7C381.4 517.7 387 515.2 391.4 511.5L420.6 492.3C412.9 476.8 394.9 465 375.1 465Z" fill="#F8F2EA"/>
<path fill-rule="evenodd" clip-rule="evenodd" d="M374.5 46C110.9 46 45 111.9 45 375.5C45 639.1 110.9 705 374.5 705C638.1 705 704 639.1 704 375.5C704 111.9 638.1 46 374.5 46Z" fill="#D6663E"/>
<path d="M534.065 257.902L395.92 178.219C383.866 171.26 364.125 171.26 352.061 178.219L213.935 257.902C201.866 264.86 192 281.94 192 295.856V455.185C192 469.101 201.875 486.18 213.935 493.148L352.061 572.789C364.125 579.737 383.866 579.737 395.92 572.789L534.065 493.148C546.134 486.18 556 469.101 556 455.185V295.856C556 281.94 546.134 264.86 534.065 257.902ZM496.81 343.699H482.495V319.391C482.495 300.803 468.186 295.083 440.506 295.083H439.243C372.927 295.083 378.809 270.295 376.896 261.241H375.937C374.029 270.295 380.395 295.083 314.064 295.083H312.322C284.647 295.083 270.328 300.808 270.328 319.391V338.145L496.748 403.552V407.213H496.81V430.587C496.81 457.276 483.925 472.051 440.506 472.051H438.284C404.414 472.051 383.571 479.203 383.571 505.893H369.257C369.257 479.203 348.429 472.051 314.544 472.051H312.327C268.904 472.051 256.023 457.276 256.023 430.587V407.213H270.333V431.521C270.333 450.138 284.657 455.849 312.327 455.849H313.59C379.92 455.849 374.033 480.626 375.942 489.69H376.901C378.809 480.626 372.448 455.849 438.759 455.849H440.511C468.19 455.849 482.5 450.124 482.5 431.521V417.548L256.052 352.127V343.699H256.019V320.349C256.019 293.655 268.899 278.88 312.322 278.88H314.539C348.424 278.88 369.252 271.723 369.252 245.034H383.567C383.567 271.723 404.409 278.88 438.28 278.88H440.502C483.92 278.88 496.805 293.655 496.805 320.349L496.81 343.699Z" fill="#F8F2EA"/>
</svg>
