<svg width="750" height="750" viewBox="0 0 750 750" fill="none" xmlns="http://www.w3.org/2000/svg">
<path d="M663.47 163.033L414.505 19.4063C392.78 6.86458 357.203 6.86458 335.461 19.4063L86.5304 163.033C64.7801 175.575 47 206.36 47 231.444V518.629C47 543.712 64.7972 574.498 86.5304 587.057L335.461 730.607C357.203 743.131 392.78 743.131 414.505 730.607L663.47 587.057C685.22 574.498 703 543.712 703 518.629V231.444C703 206.36 685.22 175.575 663.47 163.033ZM596.328 317.68H570.53V273.865C570.53 240.361 544.741 230.05 494.858 230.05H492.582C373.066 230.05 383.668 185.372 380.219 169.052H378.491C375.051 185.372 386.525 230.05 266.984 230.05H263.844C213.969 230.05 188.163 240.369 188.163 273.865V307.669L596.216 425.562V432.162H596.328V474.293C596.328 522.399 573.106 549.03 494.858 549.03H490.853C429.812 549.03 392.25 561.922 392.25 610.029H366.452C366.452 561.922 328.915 549.03 267.849 549.03H263.853C185.596 549.03 162.383 522.399 162.383 474.293V432.162H188.172V475.977C188.172 509.533 213.986 519.826 263.853 519.826H266.129C385.67 519.826 375.06 564.487 378.5 580.824H380.228C383.668 564.487 372.202 519.826 491.709 519.826H494.866C544.75 519.826 570.539 509.507 570.539 475.977V450.791L162.434 332.872V317.68H162.374V275.592C162.374 227.477 185.588 200.846 263.844 200.846H267.84C328.907 200.846 366.444 187.945 366.444 139.839H392.241C392.241 187.945 429.804 200.846 490.845 200.846H494.849C573.097 200.846 596.319 227.477 596.319 275.592L596.328 317.68Z" fill="#D6663E"/>
</svg>
