<svg height="113" viewBox="0 0 151 113" width="151" xmlns="http://www.w3.org/2000/svg"><path d="m121.66521 38.075647c-4.289819-21.7485057-23.4047452-38.075647-46.3678949-38.075647-9.3366613 0-17.9793902 2.71068222-25.2973151 7.37558125l9.2104933 9.20371595c4.7945047-2.5215666 10.2829487-3.9714671 16.0868218-3.9714671 19.1780135 0 34.6970639 15.5076311 34.6970639 34.6715329v3.1519575h9.462836c10.472204 0 18.925671 8.4472474 18.925671 18.9117452 0 7.123419-4.03747 13.3012671-9.841343 16.5162512l9.147408 9.1406831c8.011861-5.7365627 13.311049-15.0663551 13.311049-25.6569343 0-16.6423377-12.932536-30.1327121-29.33479-31.2674187zm-102.8080671-30.10286922 17.2857142 17.20111232c-20.0514292.8788852-36.1428571 17.3266686-36.1428571 37.6038877 0 20.7794381 16.9085721 37.6666662 37.7142857 37.6666662h73.7314283l12.571429 12.555556 7.982857-7.972778-105.16-105.027222zm30.0336086 30.02722222 50.1092485 50h-60.9453742c-13.8426807 0-25.0546258-11.1875056-25.0546258-25s11.2119451-25 25.0546258-25z" fill="#e8eef2" fill-rule="evenodd"/></svg>