<svg height="87" viewBox="0 0 78 87" width="78" xmlns="http://www.w3.org/2000/svg"><path d="m72.489 18.627-29.097-16.8c-2.539-1.467-6.697-1.467-9.238 0l-29.093 16.8c-2.542 1.467-4.62 5.068-4.62 8.002v33.592c0 2.934 2.08 6.535 4.62 8.004l29.093 16.791c2.541 1.465 6.699 1.465 9.238 0l29.097-16.791c2.542-1.469 4.62-5.07 4.62-8.004v-33.592c0-2.934-2.078-6.535-4.62-8.002zm-7.847 18.089h-3.015v-5.125c0-3.919-3.014-5.125-8.844-5.125h-.266c-13.968 0-12.729-5.226-13.132-7.135h-.202c-.402 1.909.939 7.135-13.032 7.135h-.367c-5.829 0-8.845 1.207-8.845 5.125v3.954l47.69 13.79v.772h.013v4.928c0 5.627-2.714 8.742-11.859 8.742h-.468c-7.134 0-11.524 1.508-11.524 7.135h-3.015c0-5.627-4.387-7.135-11.524-7.135h-.467c-9.146 0-11.859-3.115-11.859-8.742v-4.928h3.014v5.125c0 3.925 3.017 5.129 8.845 5.129h.266c13.971 0 12.731 5.224 13.133 7.135h.202c.402-1.911-.938-7.135 13.029-7.135h.369c5.83 0 8.844-1.207 8.844-5.129v-2.946l-47.696-13.793v-1.777h-.007v-4.923c0-5.628 2.713-8.743 11.859-8.743h.467c7.137 0 11.524-1.509 11.524-7.136h3.015c0 5.627 4.39 7.136 11.524 7.136h.468c9.145 0 11.859 3.115 11.859 8.743z" fill-rule="evenodd"/></svg>