<?xml version="1.0" encoding="UTF-8"?>
<svg id="Layer_1" data-name="Layer 1" xmlns="http://www.w3.org/2000/svg" viewBox="0 0 544.22 544.22">
  <defs>
    <style>
      .cls-1 {
        fill: #00a1d5;
        stroke-width: 0px;
      }
    </style>
  </defs>
  <path class="cls-1" d="m379.72,244.22v-20.48c0-23.41-11.29-36.37-49.34-36.37h-1.95c-29.68,0-47.94-6.28-47.94-29.69h-12.54c0,23.41-18.25,29.69-47.94,29.69h-1.94c-38.05,0-49.34,12.96-49.34,36.37v20.48h.03v7.39l198.43,57.38v12.26c0,16.32-12.54,21.34-36.79,21.34h-1.54c-58.11,0-52.53,21.73-54.2,29.68h-.84c-1.67-7.95,3.49-29.68-54.64-29.68h-1.11c-24.25,0-36.8-5.01-36.8-21.34v-21.32h-12.54v20.5c0,23.41,11.29,36.37,49.34,36.37h1.94c29.69,0,47.94,6.27,47.94,29.68h12.54c0-23.41,18.26-29.68,47.94-29.68h1.95c38.05,0,49.34-12.96,49.34-36.37v-20.5h-.05v-3.21l-198.4-57.37v-16.45c0-16.3,12.55-21.32,36.8-21.32h1.53c58.12,0,52.54-21.74,54.22-29.68h.84c1.68,7.94-3.48,29.68,54.63,29.68h1.11c24.25,0,36.79,5.02,36.79,21.32v21.32h12.54Z"/>
  <path class="cls-1" d="m272.11,0C2.1,0,0,121.83,0,272.11s2.1,272.11,272.11,272.11,272.11-121.83,272.11-272.11S542.12,0,272.11,0Zm159.48,342c0,12.21-8.65,27.19-19.22,33.3l-121.05,69.85c-10.56,6.09-27.86,6.09-38.43,0l-121.03-69.85c-10.57-6.11-19.22-21.09-19.22-33.3v-139.75c0-12.21,8.65-27.19,19.22-33.29l121.03-69.89c10.57-6.1,27.87-6.1,38.43,0l121.05,69.89c10.58,6.1,19.22,21.08,19.22,33.29v139.75Z"/>
</svg>