<svg height="100" viewBox="0 0 100 100" width="100" xmlns="http://www.w3.org/2000/svg"><g fill="none" fill-rule="evenodd"><circle cx="50" cy="50" fill="#00a1d5" r="50"/><path d="m73.6263175 32.5780555-20.4457301-11.8049375c-1.7840914-1.030824-4.7058134-1.030824-6.4913102 0l-20.4429194 11.8049375c-1.7861995 1.030824-3.2463578 3.5611561-3.2463578 5.6228041v23.6042535c0 2.061648 1.4615637 4.5919802 3.2463578 5.6242095l20.4429194 11.7986134c1.7854968 1.0294187 4.7072188 1.0294187 6.4913102 0l20.4457301-11.7986134c1.7861995-1.0322293 3.2463578-3.5625615 3.2463578-5.6242095v-23.6042535c0-2.061648-1.4601583-4.5919801-3.2463578-5.6228041zm-5.5138895 12.7106853h-2.1185647v-3.6012086c0-2.7537827-2.117862-3.6012086-6.2144564-3.6012086h-.1869115c-9.8149623 0-8.9443481-3.6721788-9.2275261-5.013585h-.1419403c-.2824753 1.3414062.6598117 5.013585-9.1572586 5.013585h-.2578817c-4.0958917 0-6.215159.8481285-6.215159 3.6012086v2.7783764l33.5105635 9.6898861v.542465h.0091348v3.4627817c0 3.9539513-1.9070596 6.1427835-8.3330211 6.1427835h-.3288518c-5.0128824 0-8.0976249 1.0596337-8.0976249 5.013585h-2.1185647c0-3.9539513-3.0826346-5.013585-8.097625-5.013585h-.3281491c-6.4266642 0-8.3330211-2.1888322-8.3330211-6.1427835v-3.4627817h2.117862v3.6012086c0 2.7579988 2.1199701 3.6040193 6.2151591 3.6040193h.1869115c9.8170703 0 8.9457535 3.6707734 9.2282288 5.0135851h.1419403c.2824753-1.3428117-.659109-5.0135851 9.1551506-5.0135851h.259287c4.0965944 0 6.2144564-.8481285 6.2144564-3.6040193v-2.0700801l-33.5147796-9.6919942v-1.2486532h-.0049187v-3.4592683c0-3.954654 1.9063568-6.1434862 8.333021-6.1434862h.3281492c5.0149903 0 8.0976249-1.0603363 8.0976249-5.0142877h2.1185647c0 3.9539514 3.0847426 5.0142877 8.0976249 5.0142877h.3288519c6.4259615 0 8.333021 2.1888322 8.333021 6.1434862z" fill="#fff" fill-rule="nonzero"/></g></svg>